<svg width="74" height="13" viewBox="0 0 74 13" fill="none" xmlns="http://www.w3.org/2000/svg">
<g clip-path="url(#clip0_10083_118)">
<path d="M13.3504 4.89095C13.2418 4.55761 12.9536 4.31528 12.6065 4.26469L9.08986 3.75345L7.51848 0.576786C7.20734 -0.0513116 6.179 -0.0513116 5.86786 0.576786L4.29648 3.75345L0.78819 4.26469C0.442022 4.31528 0.153902 4.55846 0.0452918 4.89194C-0.0633182 5.22443 0.0269312 5.59012 0.278189 5.83501L2.82268 8.31631L2.22243 11.8171C2.16354 12.1625 2.30534 12.5125 2.5888 12.7188C2.87325 12.9241 3.24978 12.951 3.55909 12.7879L6.69282 11.1346L9.83572 12.7879C9.97018 12.8588 10.1175 12.8939 10.2638 12.8939C10.4543 12.8939 10.6449 12.834 10.806 12.7189C11.0896 12.5116 11.2313 12.1626 11.1724 11.8173L10.5731 8.31645L13.1176 5.83515C13.3689 5.59097 13.459 5.22443 13.3504 4.89095Z" fill="#FFC107"/>
<path d="M28.371 4.89144C28.2624 4.5581 27.9743 4.31576 27.6271 4.26518L24.1105 3.75394L22.5391 0.577275C22.228 -0.0508233 21.1996 -0.0508233 20.8885 0.577275L19.3171 3.75394L15.8088 4.26518C15.4627 4.31576 15.1745 4.55895 15.0659 4.89243C14.9573 5.22492 15.0476 5.59061 15.2988 5.83549L17.8433 8.3168L17.2431 11.8176C17.1842 12.163 17.326 12.514 17.6094 12.7193C17.893 12.9246 18.2704 12.9514 18.5797 12.7884L21.7134 11.1351L24.8564 12.7884C24.9908 12.8593 25.1381 12.8944 25.2844 12.8944C25.475 12.8944 25.6655 12.8344 25.8266 12.7194C26.1102 12.5121 26.2519 12.1631 26.193 11.8178L25.5937 8.31694L28.1382 5.83563C28.3895 5.59146 28.4796 5.22492 28.371 4.89144Z" fill="#DFDFDF"/>
<path d="M28.3733 4.89119C28.2647 4.55786 27.9766 4.31552 27.6294 4.26493L24.1128 3.75369L22.5414 0.57703C22.2303 -0.0510674 21.202 -0.0510674 20.8908 0.57703L19.3194 3.75369L15.8111 4.26493C15.465 4.31552 15.1769 4.5587 15.0682 4.89218C14.9596 5.22467 15.0499 5.59037 15.3011 5.83525L17.8456 8.31655L17.2454 11.8174C17.1865 12.1627 17.3283 12.5137 17.6117 12.719C17.8953 12.9243 18.2727 12.9512 18.582 12.7881L21.7158 11.1349L24.8587 12.7881C24.9931 12.8591 25.1404 12.8941 25.2868 12.8941C25.4773 12.8941 25.6678 12.8342 25.829 12.7192C26.1126 12.5119 26.2542 12.1629 26.1953 11.8175L25.5961 8.31669L28.1406 5.83539C28.3918 5.59122 28.4819 5.22467 28.3733 4.89119Z" fill="url(#paint0_linear_10083_118)"/>
<path d="M43.3941 4.89119C43.2855 4.55786 42.9973 4.31552 42.6502 4.26493L39.1336 3.75369L37.5622 0.57703C37.251 -0.0510674 36.2227 -0.0510674 35.9116 0.57703L34.3402 3.75369L30.8319 4.26493C30.4857 4.31552 30.1976 4.5587 30.089 4.89218C29.9804 5.22467 30.0706 5.59037 30.3219 5.83525L32.8664 8.31655L32.2661 11.8174C32.2072 12.1627 32.349 12.5127 32.6325 12.719C32.9169 12.9243 33.2935 12.9512 33.6028 12.7881L36.7364 11.1349L39.8793 12.7881C40.0137 12.8591 40.161 12.8941 40.3074 12.8941C40.4979 12.8941 40.6884 12.8342 40.8496 12.7192C41.1332 12.5119 41.2748 12.1629 41.2159 11.8175L40.6167 8.31669L43.1612 5.83539C43.4126 5.59122 43.5027 5.22467 43.3941 4.89119Z" fill="#DFDFDF"/>
<path d="M58.4148 4.89119C58.3062 4.55786 58.0181 4.31552 57.6709 4.26493L54.1543 3.75369L52.5829 0.57703C52.2718 -0.0510674 51.2435 -0.0510674 50.9323 0.57703L49.3609 3.75369L45.8526 4.26493C45.5065 4.31552 45.2184 4.5587 45.1097 4.89218C45.0011 5.22467 45.0914 5.59037 45.3426 5.83525L47.8871 8.31655L47.2869 11.8174C47.228 12.1627 47.3698 12.5127 47.6533 12.719C47.9377 12.9243 48.3142 12.9512 48.6235 12.7881L51.7571 11.1349L54.9 12.7881C55.0345 12.8591 55.1818 12.8941 55.3281 12.8941C55.5186 12.8941 55.7092 12.8342 55.8703 12.7192C56.1539 12.5119 56.2956 12.1629 56.2367 11.8175L55.6374 8.31669L58.1819 5.83539C58.4332 5.59122 58.5234 5.22467 58.4148 4.89119Z" fill="#DFDFDF"/>
<path d="M73.4354 4.8907C73.3259 4.55737 73.0387 4.31503 72.6916 4.26444L69.1749 3.75321L67.6036 0.576542C67.2924 -0.0515557 66.2641 -0.0515557 65.9529 0.576542L64.3816 3.75321L60.8733 4.26444C60.5271 4.31503 60.239 4.55822 60.1304 4.89169C60.0218 5.22418 60.112 5.58988 60.3633 5.83476L62.9078 8.31606L62.3075 11.8169C62.2486 12.1622 62.3904 12.5122 62.6739 12.7185C62.834 12.8346 63.0237 12.8935 63.2143 12.8935C63.3616 12.8935 63.5089 12.8584 63.645 12.7875L66.7787 11.1342L69.9225 12.7875C70.2318 12.9524 70.6074 12.9247 70.8919 12.7176C71.1746 12.5112 71.3164 12.1622 71.2575 11.8167L70.6582 8.31592L73.2027 5.83462C73.4538 5.59073 73.5432 5.22418 73.4354 4.8907Z" fill="#DFDFDF"/>
</g>
<defs>
<linearGradient id="paint0_linear_10083_118" x1="15.0229" y1="6.50003" x2="21.8276" y2="6.50003" gradientUnits="userSpaceOnUse">
<stop stop-color="#FFC107"/>
<stop offset="0.98834" stop-color="#FFC107"/>
<stop offset="1" stop-color="#DFDFDF"/>
</linearGradient>
<clipPath id="clip0_10083_118">
<rect width="74" height="13" fill="white"/>
</clipPath>
</defs>
</svg>
