<svg width="74" height="13" viewBox="0 0 74 13" fill="none" xmlns="http://www.w3.org/2000/svg">
<g clip-path="url(#clip0_10083_127)">
<path d="M13.3504 4.89095C13.2418 4.55761 12.9536 4.31528 12.6065 4.26469L9.08986 3.75345L7.51848 0.576786C7.20734 -0.0513116 6.179 -0.0513116 5.86786 0.576786L4.29648 3.75345L0.78819 4.26469C0.442022 4.31528 0.153902 4.55846 0.0452918 4.89194C-0.0633182 5.22443 0.0269312 5.59012 0.278189 5.83501L2.82268 8.31631L2.22243 11.8171C2.16354 12.1625 2.30534 12.5125 2.5888 12.7188C2.87325 12.9241 3.24978 12.951 3.55909 12.7879L6.69282 11.1346L9.83572 12.7879C9.97018 12.8588 10.1175 12.8939 10.2638 12.8939C10.4543 12.8939 10.6449 12.834 10.806 12.7189C11.0896 12.5116 11.2313 12.1626 11.1724 11.8173L10.5731 8.31645L13.1176 5.83515C13.3689 5.59097 13.459 5.22443 13.3504 4.89095Z" fill="#FFC107"/>
<path d="M28.371 4.89119C28.2624 4.55786 27.9743 4.31552 27.6271 4.26493L24.1105 3.75369L22.5391 0.57703C22.228 -0.0510674 21.1996 -0.0510674 20.8885 0.57703L19.3171 3.75369L15.8088 4.26493C15.4627 4.31552 15.1745 4.5587 15.0659 4.89218C14.9573 5.22467 15.0476 5.59037 15.2988 5.83525L17.8433 8.31655L17.2431 11.8174C17.1842 12.1627 17.326 12.5127 17.6094 12.719C17.8939 12.9243 18.2704 12.9512 18.5797 12.7881L21.7133 11.1349L24.8562 12.7881C24.9907 12.8591 25.138 12.8941 25.2843 12.8941C25.4748 12.8941 25.6654 12.8342 25.8265 12.7192C26.1101 12.5119 26.2518 12.1629 26.1929 11.8175L25.5936 8.31669L28.1381 5.83539C28.3895 5.59122 28.4796 5.22467 28.371 4.89119Z" fill="#FFC107"/>
<path d="M43.3917 4.89119C43.2831 4.55786 42.995 4.31552 42.6479 4.26493L39.1312 3.75369L37.5599 0.57703C37.2487 -0.0510674 36.2204 -0.0510674 35.9092 0.57703L34.3379 3.75369L30.8296 4.26493C30.4834 4.31552 30.1953 4.5587 30.0867 4.89218C29.9781 5.22467 30.0683 5.59037 30.3196 5.83525L32.8641 8.31655L32.2638 11.8174C32.2049 12.1627 32.3467 12.5137 32.6302 12.719C32.9138 12.9243 33.2912 12.9512 33.6005 12.7881L36.7342 11.1349L39.8771 12.7881C40.0116 12.8591 40.1589 12.8941 40.3052 12.8941C40.4957 12.8941 40.6862 12.8342 40.8474 12.7192C41.131 12.5119 41.2727 12.1629 41.2138 11.8175L40.6145 8.31669L43.159 5.83539C43.4103 5.59122 43.5004 5.22467 43.3917 4.89119Z" fill="#DFDFDF"/>
<path d="M58.4124 4.89119C58.3038 4.55786 58.0157 4.31552 57.6685 4.26493L54.1519 3.75369L52.5805 0.57703C52.2694 -0.0510674 51.241 -0.0510674 50.9299 0.57703L49.3585 3.75369L45.8502 4.26493C45.504 4.31552 45.2159 4.5587 45.1073 4.89218C44.9987 5.22467 45.0889 5.59037 45.3402 5.83525L47.8847 8.31655L47.2844 11.8174C47.2256 12.1627 47.3674 12.5127 47.6508 12.719C47.9353 12.9243 48.3118 12.9512 48.6211 12.7881L51.7547 11.1349L54.8976 12.7881C55.0321 12.8591 55.1794 12.8941 55.3257 12.8941C55.5162 12.8941 55.7067 12.8342 55.8679 12.7192C56.1515 12.5119 56.2931 12.1629 56.2342 11.8175L55.635 8.31669L58.1795 5.83539C58.4307 5.59122 58.521 5.22467 58.4124 4.89119Z" fill="#DFDFDF"/>
<path d="M73.4331 4.8907C73.3235 4.55737 73.0364 4.31503 72.6892 4.26444L69.1726 3.75321L67.6012 0.576542C67.2901 -0.0515557 66.2618 -0.0515557 65.9506 0.576542L64.3792 3.75321L60.871 4.26444C60.5248 4.31503 60.2367 4.55822 60.1281 4.89169C60.0194 5.22418 60.1097 5.58988 60.361 5.83476L62.9054 8.31606L62.3052 11.8169C62.2463 12.1622 62.3881 12.5122 62.6716 12.7185C62.8317 12.8346 63.0214 12.8935 63.2119 12.8935C63.3592 12.8935 63.5065 12.8584 63.6427 12.7875L66.7764 11.1342L69.9202 12.7875C70.2295 12.9524 70.605 12.9247 70.8896 12.7176C71.1722 12.5112 71.314 12.1622 71.2551 11.8167L70.6559 8.31592L73.2004 5.83462C73.4515 5.59073 73.5409 5.22418 73.4331 4.8907Z" fill="#DFDFDF"/>
</g>
<defs>
<clipPath id="clip0_10083_127">
<rect width="74" height="13" fill="white"/>
</clipPath>
</defs>
</svg>
