<svg width="74" height="13" viewBox="0 0 74 13" fill="none" xmlns="http://www.w3.org/2000/svg">
<g clip-path="url(#clip0_10083_172)">
<path d="M13.3504 4.89095C13.2418 4.55761 12.9536 4.31528 12.6065 4.26469L9.08986 3.75345L7.51848 0.576786C7.20734 -0.0513116 6.179 -0.0513116 5.86786 0.576786L4.29648 3.75345L0.78819 4.26469C0.442022 4.31528 0.153902 4.55846 0.0452918 4.89194C-0.0633182 5.22443 0.0269312 5.59012 0.278189 5.83501L2.82268 8.31631L2.22243 11.8171C2.16354 12.1625 2.30534 12.5125 2.5888 12.7188C2.87325 12.9241 3.24978 12.951 3.55909 12.7879L6.69282 11.1346L9.83572 12.7879C9.97018 12.8588 10.1175 12.8939 10.2638 12.8939C10.4543 12.8939 10.6449 12.834 10.806 12.7189C11.0896 12.5116 11.2313 12.1626 11.1724 11.8173L10.5731 8.31645L13.1176 5.83515C13.3689 5.59097 13.459 5.22443 13.3504 4.89095Z" fill="#FFC107"/>
<path d="M28.371 4.89119C28.2624 4.55786 27.9743 4.31552 27.6271 4.26493L24.1105 3.75369L22.5391 0.57703C22.228 -0.0510674 21.1996 -0.0510674 20.8885 0.57703L19.3171 3.75369L15.8088 4.26493C15.4627 4.31552 15.1745 4.5587 15.0659 4.89218C14.9573 5.22467 15.0476 5.59037 15.2988 5.83525L17.8433 8.31655L17.2431 11.8174C17.1842 12.1627 17.326 12.5127 17.6094 12.719C17.8939 12.9243 18.2704 12.9512 18.5797 12.7881L21.7133 11.1349L24.8562 12.7881C24.9907 12.8591 25.138 12.8941 25.2843 12.8941C25.4748 12.8941 25.6654 12.8342 25.8265 12.7192C26.1101 12.5119 26.2518 12.1629 26.1929 11.8175L25.5936 8.31669L28.1381 5.83539C28.3895 5.59122 28.4796 5.22467 28.371 4.89119Z" fill="#FFC107"/>
<path d="M43.3918 4.89119C43.2831 4.55786 42.995 4.31552 42.6479 4.26493L39.1312 3.75369L37.5599 0.57703C37.2487 -0.0510674 36.2204 -0.0510674 35.9092 0.57703L34.3379 3.75369L30.8296 4.26493C30.4834 4.31552 30.1953 4.5587 30.0867 4.89218C29.9781 5.22467 30.0683 5.59037 30.3196 5.83525L32.8641 8.31655L32.2638 11.8174C32.2049 12.1627 32.3467 12.5127 32.6302 12.719C32.9146 12.9243 33.2912 12.9512 33.6005 12.7881L36.7341 11.1349L39.877 12.7881C40.0114 12.8591 40.1587 12.8941 40.3051 12.8941C40.4956 12.8941 40.6861 12.8342 40.8473 12.7192C41.1309 12.5119 41.2725 12.1629 41.2136 11.8175L40.6144 8.31669L43.1589 5.83539C43.4101 5.59122 43.5004 5.22467 43.3918 4.89119Z" fill="#FFC107"/>
<path d="M58.4124 4.8907C58.3028 4.55737 58.0156 4.31503 57.6685 4.26444L54.1519 3.75321L52.5805 0.576542C52.2693 -0.0515557 51.241 -0.0515557 50.9299 0.576542L49.3585 3.75321L45.8502 4.26444C45.504 4.31503 45.2159 4.55822 45.1073 4.89169C44.9987 5.22418 45.0889 5.58988 45.3402 5.83476L47.8847 8.31606L47.2844 11.8169C47.2256 12.1622 47.3674 12.5122 47.6508 12.7185C47.811 12.8346 48.0007 12.8935 48.1912 12.8935C48.3385 12.8935 48.4858 12.8584 48.6219 12.7875L51.7557 11.1342L54.8994 12.7875C55.2087 12.9524 55.5843 12.9247 55.8689 12.7176C56.1515 12.5112 56.2933 12.1622 56.2344 11.8167L55.6351 8.31592L58.1796 5.83462C58.4307 5.59073 58.5201 5.22418 58.4124 4.8907Z" fill="#FFC107"/>
<path d="M73.4328 4.89119C73.3242 4.55786 73.036 4.31552 72.6889 4.26493L69.1723 3.75369L67.6009 0.57703C67.2897 -0.0510674 66.2614 -0.0510674 65.9503 0.57703L64.3789 3.75369L60.8706 4.26493C60.5244 4.31552 60.2363 4.5587 60.1277 4.89218C60.0191 5.22467 60.1093 5.59037 60.3606 5.83525L62.9051 8.31655L62.3048 11.8174C62.2459 12.1627 62.3877 12.5137 62.6712 12.719C62.9548 12.9243 63.3322 12.9512 63.6415 12.7881L66.7752 11.1349L69.9181 12.7881C70.0526 12.8591 70.1999 12.8941 70.3462 12.8941C70.5367 12.8941 70.7273 12.8342 70.8884 12.7192C71.172 12.5119 71.3137 12.1629 71.2548 11.8175L70.6555 8.31669L73.2 5.83539C73.4513 5.59122 73.5414 5.22467 73.4328 4.89119Z" fill="#DFDFDF"/>
<path d="M73.4328 4.89119C73.3242 4.55786 73.036 4.31552 72.6889 4.26493L69.1723 3.75369L67.6009 0.57703C67.2897 -0.0510674 66.2614 -0.0510674 65.9503 0.57703L64.3789 3.75369L60.8706 4.26493C60.5244 4.31552 60.2363 4.5587 60.1277 4.89218C60.0191 5.22467 60.1093 5.59037 60.3606 5.83525L62.9051 8.31655L62.3048 11.8174C62.2459 12.1627 62.3877 12.5137 62.6712 12.719C62.9548 12.9243 63.3322 12.9512 63.6415 12.7881L66.7752 11.1349L69.9181 12.7881C70.0526 12.8591 70.1999 12.8941 70.3462 12.8941C70.5367 12.8941 70.7273 12.8342 70.8884 12.7192C71.172 12.5119 71.3137 12.1629 71.2548 11.8175L70.6555 8.31669L73.2 5.83539C73.4513 5.59122 73.5414 5.22467 73.4328 4.89119Z" fill="url(#paint0_linear_10083_172)"/>
</g>
<defs>
<linearGradient id="paint0_linear_10083_172" x1="60.0824" y1="6.50003" x2="66.8871" y2="6.50003" gradientUnits="userSpaceOnUse">
<stop stop-color="#FFC107"/>
<stop offset="0.98834" stop-color="#FFC107"/>
<stop offset="1" stop-color="#DFDFDF"/>
</linearGradient>
<clipPath id="clip0_10083_172">
<rect width="74" height="13" fill="white"/>
</clipPath>
</defs>
</svg>
